{"glyphs":{"0":{"ha":778,"x_min":0,"x_max":0,"o":"m 389 1000 b 708 708 565 1000 708 869 l 708 292 b 389 0 708 131 565 0 b 69 292 212 0 69 131 l 69 708 b 389 1000 69 869 212 1000 z m 389 833 b 236 708 305 833 236 777 l 236 292 b 389 167 236 223 305 167 b 542 292 473 167 542 223 l 542 708 b 389 833 542 777 473 833 z "},"1":{"ha":417,"x_min":0,"x_max":0,"o":"m 69 1000 l 125 1000 l 292 1000 l 292 167 l 347 167 l 347 0 l 292 0 l 125 0 l 69 0 l 69 167 l 125 167 l 125 833 l 69 833 z "},"2":{"ha":778,"x_min":0,"x_max":0,"o":"m 389 1000 b 708 708 565 1000 708 869 b 625 529 708 630 675 573 b 398 404 562 472 475 436 b 236 278 309 366 236 333 l 236 167 l 708 167 l 708 0 l 69 0 l 69 167 l 69 278 b 149 462 69 358 102 417 b 328 571 199 510 264 543 b 542 708 438 619 542 650 b 389 833 542 777 473 833 b 236 708 305 833 236 777 l 69 708 b 389 1000 69 869 212 1000 z "},"3":{"ha":778,"x_min":0,"x_max":0,"o":"m 389 1000 b 708 708 565 1000 708 869 b 612 500 708 641 665 547 b 708 292 665 453 708 359 b 389 0 708 131 565 0 b 69 292 213 0 69 131 l 236 292 b 389 167 236 223 305 167 b 542 292 473 167 542 223 b 389 417 542 361 473 417 l 264 417 l 264 583 l 389 583 b 542 708 473 583 542 639 b 389 833 542 777 473 833 b 236 708 305 833 236 777 l 69 708 b 389 1000 69 869 213 1000 z "},"4":{"ha":778,"x_min":0,"x_max":0,"o":"m 458 1000 l 625 1000 l 625 500 l 708 500 l 708 333 l 625 333 l 625 0 l 458 0 l 458 333 l 69 333 l 69 500 z m 458 752 l 264 500 l 458 500 z "},"5":{"ha":778,"x_min":0,"x_max":0,"o":"m 97 1000 l 264 1000 l 653 1000 l 653 833 l 264 833 l 264 667 l 389 667 b 708 375 565 667 708 536 l 708 292 b 389 0 708 131 565 0 b 69 292 212 0 69 131 l 236 292 b 389 167 236 223 305 167 b 542 292 473 167 542 223 l 542 375 b 389 500 542 444 473 500 l 264 500 l 97 500 z "},"6":{"ha":778,"x_min":0,"x_max":0,"o":"m 375 1000 l 653 1000 l 653 833 l 389 833 b 236 708 305 833 236 777 l 236 631 b 389 667 276 651 344 667 b 708 375 565 667 708 536 l 708 292 b 389 0 708 131 565 0 b 69 292 212 0 69 131 l 69 708 b 375 1000 70 862 206 993 z m 389 500 b 236 375 305 500 236 444 l 236 292 b 389 167 236 223 305 167 b 542 292 473 167 542 223 l 542 375 b 389 500 542 444 473 500 z "},"7":{"ha":722,"x_min":0,"x_max":0,"o":"m 69 1000 l 653 1000 l 653 833 l 458 0 l 292 0 l 486 833 l 69 833 z "},"8":{"ha":778,"x_min":0,"x_max":0,"o":"m 389 986 b 708 694 565 986 708 855 b 612 486 708 627 665 533 b 708 278 665 439 708 345 b 389 -14 708 117 565 -14 b 69 278 213 -14 69 117 b 165 486 69 345 112 439 b 69 694 112 533 69 627 b 389 986 69 855 213 986 z m 389 819 b 236 694 305 819 236 763 b 389 569 236 625 305 569 b 542 694 473 569 542 625 b 389 819 542 763 473 819 z m 389 403 b 236 278 305 403 236 347 b 389 153 236 209 305 153 b 542 278 473 153 542 209 b 389 403 542 347 473 403 z "},"9":{"ha":778,"x_min":0,"x_max":0,"o":"m 403 0 l 125 0 l 125 167 l 389 167 b 542 292 473 167 542 223 l 542 369 b 389 333 502 349 434 333 b 69 625 213 333 69 464 l 69 708 b 389 1000 69 869 212 1000 b 708 708 565 1000 708 869 l 708 292 b 403 0 708 138 571 7 z m 389 500 b 542 625 473 500 542 556 l 542 708 b 389 833 542 777 473 833 b 236 708 305 833 236 777 l 236 625 b 389 500 236 556 305 500 z "}," ":{"ha":417,"x_min":0,"x_max":0,"o":""},"!":{"ha":278,"x_min":0,"x_max":0,"o":"m 56 1000 l 222 1000 l 222 278 l 56 278 z m 139 167 b 222 83 185 167 222 129 b 139 0 222 37 185 0 b 56 83 93 0 56 37 b 139 167 56 129 93 167 z "},"\"":{"ha":500,"x_min":0,"x_max":0,"o":"m 139 1000 b 222 917 185 1000 222 963 b 207 841 222 888 216 862 b 139 778 190 801 162 778 l 139 833 b 56 917 93 833 56 871 b 139 1000 56 963 93 1000 z m 361 1000 b 444 917 407 1000 444 963 b 429 841 444 888 439 862 b 361 778 412 801 384 778 l 361 833 b 278 917 315 833 278 871 b 361 1000 278 963 315 1000 z "},"#":{"ha":1028,"x_min":0,"x_max":0,"o":"m 300 1000 l 468 1000 l 447 833 l 664 833 l 685 1000 l 853 1000 l 832 833 l 972 833 l 972 667 l 811 667 l 769 333 l 917 333 l 917 167 l 748 167 l 727 0 l 559 0 l 580 167 l 362 167 l 341 0 l 173 0 l 194 167 l 56 167 l 56 333 l 215 333 l 258 667 l 111 667 l 111 833 l 279 833 z m 426 667 l 383 333 l 601 333 l 643 667 z "},"$":{"ha":750,"x_min":0,"x_max":0,"o":"m 289 1046 l 456 1046 l 456 982 b 694 703 593 949 694 837 l 528 703 b 456 808 528 747 499 786 l 456 559 b 615 460 513 533 570 502 b 694 278 662 415 694 357 b 456 0 694 145 593 32 l 456 -65 l 289 -65 l 289 1 b 56 278 154 35 56 146 l 222 278 b 289 177 222 236 249 199 l 289 436 b 139 526 235 460 181 488 b 56 703 89 570 56 626 b 289 980 56 835 154 946 z m 289 805 b 222 703 249 783 222 745 b 289 631 222 674 249 652 z m 456 361 l 456 174 b 528 278 499 195 528 234 b 456 361 528 312 499 338 z "},"%":{"ha":1167,"x_min":0,"x_max":0,"o":"m 292 1000 b 528 764 422 1000 528 894 b 292 528 528 634 422 528 b 56 764 161 528 56 634 b 292 1000 56 894 161 1000 z m 779 1000 l 959 1000 l 970 993 l 370 0 l 175 0 z m 292 833 b 222 764 253 833 222 802 b 292 694 222 726 253 694 b 361 764 330 694 361 726 b 292 833 361 802 330 833 z m 875 472 b 1111 236 1005 472 1111 366 b 875 0 1111 106 1005 0 b 639 236 745 0 639 106 b 875 472 639 366 745 472 z m 875 306 b 806 236 837 306 806 274 b 875 167 806 198 837 167 b 944 236 913 167 944 198 b 875 306 944 274 913 306 z "},"&":{"ha":936,"x_min":0,"x_max":0,"o":"m 389 1000 b 639 750 527 1000 639 888 b 597 616 638 702 623 657 b 500 514 573 578 539 543 l 881 117 l 764 0 l 764 -2 l 639 128 b 375 0 582 51 485 0 b 56 292 199 0 56 131 b 166 512 56 380 98 459 b 234 551 190 529 212 541 b 172 625 210 576 189 595 b 139 750 151 662 139 705 b 389 1000 139 888 251 1000 z m 389 833 b 306 750 343 833 306 796 b 334 685 306 728 319 705 b 388 632 355 657 380 636 b 441 686 393 636 419 657 b 472 750 456 705 469 727 b 389 833 472 796 435 833 z m 350 431 b 259 373 318 414 287 396 b 222 292 236 351 222 323 b 375 167 222 223 291 167 b 520 253 443 167 500 203 z "},"'":{"ha":278,"x_min":0,"x_max":0,"o":"m 139 1000 b 222 917 185 1000 222 963 b 207 841 222 888 216 862 b 139 778 190 801 162 778 l 139 833 b 56 917 93 833 56 871 b 139 1000 56 963 93 1000 z "},"(":{"ha":514,"x_min":0,"x_max":0,"o":"m 458 1113 l 458 946 b 222 501 328 946 222 747 b 458 57 222 256 328 57 l 458 -109 b 56 502 236 -98 56 176 b 458 1113 56 828 236 1102 z "},")":{"ha":514,"x_min":0,"x_max":0,"o":"m 56 1114 l 56 947 b 292 502 186 947 292 747 b 56 58 292 257 186 58 l 56 -108 b 458 503 278 -97 458 176 b 56 1114 458 829 278 1103 z "},"*":{"ha":444,"x_min":0,"x_max":0,"o":"m 183 1000 l 267 1000 l 267 894 l 353 936 l 389 860 l 281 809 l 356 725 l 294 669 l 218 753 l 145 671 l 83 727 l 158 811 l 56 860 l 91 936 l 183 892 z "},"+":{"ha":667,"x_min":0,"x_max":0,"o":"m 250 794 l 417 794 l 417 600 l 611 600 l 611 433 l 417 433 l 417 239 l 250 239 l 250 433 l 56 433 l 56 600 l 250 600 z "},",":{"ha":278,"x_min":0,"x_max":0,"o":"m 139 168 b 222 85 185 168 222 131 b 207 9 222 56 216 30 b 139 -54 190 -31 162 -54 l 139 1 b 56 85 93 1 56 39 b 139 168 56 131 93 168 z "},"-":{"ha":656,"x_min":0,"x_max":0,"o":"m 56 617 l 56 450 l 600 450 l 600 617 z "},".":{"ha":278,"x_min":0,"x_max":0,"o":"m 222 83 b 139 167 222 129 185 167 b 56 83 93 167 56 129 b 139 0 56 37 93 0 b 222 83 185 0 222 37 z "},"/":{"ha":456,"x_min":0,"x_max":0,"o":"m 232 1000 l 401 1000 l 225 0 l 56 0 z "},":":{"ha":278,"x_min":0,"x_max":0,"o":"m 139 797 b 222 714 185 797 222 760 b 139 631 222 668 185 631 b 56 714 93 631 56 668 b 139 797 56 760 93 797 z m 139 381 b 222 297 185 381 222 343 b 139 214 222 251 185 214 b 56 297 93 214 56 251 b 139 381 56 343 93 381 z "},";":{"ha":278,"x_min":0,"x_max":0,"o":"m 139 806 b 222 722 185 806 222 768 b 139 639 222 676 185 639 b 56 722 93 639 56 676 b 139 806 56 768 93 806 z m 139 389 b 222 306 185 389 222 352 b 207 230 222 277 216 251 b 139 167 190 190 162 167 l 139 222 b 56 306 93 222 56 260 b 139 389 56 352 93 389 z "},"<":{"ha":485,"x_min":0,"x_max":0,"o":"m 430 831 l 430 635 l 215 504 l 430 373 l 430 178 l 56 407 l 56 602 z "},"=":{"ha":667,"x_min":0,"x_max":0,"o":"m 56 761 l 611 761 l 611 594 l 56 594 z m 56 428 l 611 428 l 611 261 l 56 261 z "},">":{"ha":485,"x_min":0,"x_max":0,"o":"m 56 831 l 56 636 l 270 505 l 56 373 l 56 178 l 430 407 l 430 602 z "},"?":{"ha":750,"x_min":0,"x_max":0,"o":"m 375 1000 b 694 708 551 1000 694 869 b 622 509 694 605 663 549 b 439 278 548 437 442 421 l 272 278 b 444 584 271 467 369 528 b 528 708 490 618 528 650 b 375 833 528 777 459 833 b 222 708 291 833 222 777 l 56 708 b 375 1000 56 869 199 1000 z m 356 167 b 439 83 402 167 439 129 b 356 0 439 37 402 0 b 272 83 310 0 272 37 b 356 167 272 129 310 167 z "},"@":{"ha":1222,"x_min":0,"x_max":0,"o":"m 611 1000 b 1167 458 918 1000 1167 757 l 1167 431 l 1167 347 b 931 111 1167 217 1061 111 b 789 158 878 111 829 129 b 611 108 738 127 677 108 b 292 400 435 108 292 239 l 292 483 b 611 775 292 644 435 775 b 931 483 788 775 931 644 l 931 442 l 931 400 l 931 278 b 1000 347 969 278 1000 309 l 1000 431 l 1000 458 b 611 833 1000 665 826 833 b 222 458 396 833 222 665 l 222 417 b 611 42 222 210 396 42 l 931 42 l 931 -125 l 611 -125 b 56 417 304 -125 56 118 l 56 458 b 611 1000 56 757 304 1000 z m 611 608 b 458 483 527 608 458 552 l 458 400 b 611 275 458 331 527 275 b 764 400 695 275 764 331 l 764 442 l 764 483 b 625 608 764 548 704 602 l 625 608 b 623 608 624 608 624 608 b 611 608 619 608 615 608 z "},"A":{"ha":956,"x_min":0,"x_max":0,"o":"m 390 1000 l 566 1000 l 887 0 l 712 0 l 667 139 l 289 139 l 244 0 l 69 0 z m 478 728 l 343 306 l 614 306 z "},"B":{"ha":778,"x_min":0,"x_max":0,"o":"m 69 1000 l 236 1000 l 361 1000 b 681 708 537 1000 681 869 b 597 512 680 646 643 558 b 708 292 659 464 708 365 b 389 0 708 131 565 0 l 236 0 l 69 0 z m 236 833 l 236 583 l 361 583 b 514 708 445 583 514 639 b 361 833 514 777 445 833 z m 236 417 l 236 167 l 389 167 b 542 292 473 167 542 223 b 389 417 542 361 473 417 z "},"C":{"ha":944,"x_min":0,"x_max":0,"o":"m 542 1000 b 875 853 650 1000 799 934 l 761 732 b 542 833 711 788 613 833 b 236 500 373 833 236 684 b 542 167 236 316 373 167 b 761 268 613 167 711 212 l 875 147 b 542 0 799 66 650 0 b 69 500 281 0 69 224 b 542 1000 69 776 281 1000 z "},"D":{"ha":833,"x_min":0,"x_max":0,"o":"m 69 1000 l 236 1000 l 292 1000 b 764 500 552 1000 764 776 b 292 0 764 224 552 0 l 236 0 l 69 0 z m 236 833 l 236 167 l 292 167 b 597 500 460 167 597 316 b 292 833 597 684 460 833 z "},"E":{"ha":639,"x_min":0,"x_max":0,"o":"m 69 1000 l 236 1000 l 569 1000 l 569 833 l 236 833 l 236 583 l 542 583 l 542 417 l 236 417 l 236 167 l 569 167 l 569 0 l 236 0 l 69 0 z "},"F":{"ha":639,"x_min":0,"x_max":0,"o":"m 69 1000 l 236 1000 l 569 1000 l 569 833 l 236 833 l 236 583 l 542 583 l 542 417 l 236 417 l 236 222 l 236 167 l 236 0 l 69 0 z "},"G":{"ha":944,"x_min":0,"x_max":0,"o":"m 542 1000 b 875 853 650 1000 799 934 l 761 732 b 542 833 711 788 613 833 b 236 500 373 833 236 684 b 542 167 236 316 373 167 l 681 167 l 681 417 l 514 417 l 514 583 l 847 583 l 847 417 l 847 0 l 681 0 l 542 0 b 69 500 281 0 69 224 b 542 1000 69 776 281 1000 z "},"H":{"ha":778,"x_min":0,"x_max":0,"o":"m 69 1000 l 236 1000 l 236 583 l 542 583 l 542 1000 l 708 1000 l 708 0 l 542 0 l 542 417 l 236 417 l 236 0 l 69 0 z "},"I":{"ha":306,"x_min":0,"x_max":0,"o":"m 69 1000 l 69 0 l 236 0 l 236 1000 z "},"J":{"ha":458,"x_min":0,"x_max":0,"o":"m 222 1000 l 389 1000 l 389 125 b 69 -167 389 -36 246 -167 l 69 0 b 222 125 154 0 222 56 z "},"K":{"ha":782,"x_min":0,"x_max":0,"o":"m 69 1000 l 236 1000 l 236 668 l 237 667 l 475 1000 l 679 1000 l 339 524 l 713 0 l 508 0 l 237 380 l 236 379 l 236 0 l 69 0 z "},"L":{"ha":611,"x_min":0,"x_max":0,"o":"m 69 1000 l 236 1000 l 236 167 l 542 167 l 542 0 l 236 0 l 69 0 z "},"M":{"ha":947,"x_min":0,"x_max":0,"o":"m 69 1000 l 236 1000 l 474 425 l 711 1000 l 878 1000 l 878 0 l 711 0 l 711 564 l 564 206 l 384 206 l 236 564 l 236 0 l 69 0 z "},"N":{"ha":778,"x_min":0,"x_max":0,"o":"m 69 1000 l 238 1000 l 542 374 l 542 1000 l 708 1000 l 708 0 l 537 0 l 236 622 l 236 0 l 69 0 z "},"O":{"ha":1083,"x_min":0,"x_max":0,"o":"m 542 1000 b 1014 500 802 1000 1014 776 b 542 0 1014 224 802 0 b 69 500 281 0 69 224 b 542 1000 69 776 281 1000 z m 542 833 b 236 500 373 833 236 684 b 542 167 236 316 373 167 b 847 500 710 167 847 316 b 542 833 847 684 710 833 z "},"P":{"ha":694,"x_min":0,"x_max":0,"o":"m 69 1000 l 236 1000 l 306 1000 b 625 708 482 1000 625 869 b 306 417 625 547 482 417 l 236 417 l 236 0 l 69 0 z m 236 833 l 236 583 l 306 583 b 458 708 390 583 458 639 b 306 833 458 777 390 833 z "},"Q":{"ha":1083,"x_min":0,"x_max":0,"o":"m 542 1000 b 1014 500 802 1000 1014 776 b 894 168 1014 395 960 246 b 917 167 900 167 910 167 l 1000 167 l 1000 0 l 917 0 b 742 48 864 0 786 21 b 542 0 689 22 600 0 b 69 500 281 0 69 224 b 542 1000 69 776 281 1000 z m 542 833 b 236 500 373 833 236 684 b 542 167 236 316 373 167 b 622 179 564 167 600 172 b 597 292 608 208 597 259 l 597 375 l 764 375 l 764 292 b 766 274 764 287 765 279 b 847 500 811 327 847 428 b 542 833 847 684 710 833 z "},"R":{"ha":769,"x_min":0,"x_max":0,"o":"m 69 1000 l 236 1000 l 306 1000 b 625 708 482 1000 625 869 b 422 437 625 598 534 477 l 701 0 l 503 0 l 237 417 l 236 417 l 236 0 l 69 0 z m 236 833 l 236 583 l 306 583 b 458 708 390 583 458 639 b 306 833 458 777 390 833 z "},"S":{"ha":778,"x_min":0,"x_max":0,"o":"m 389 1014 b 708 722 565 1014 708 883 l 542 722 b 389 847 542 791 473 847 b 236 722 305 847 236 791 b 450 585 236 664 340 633 b 629 476 513 557 579 524 b 708 292 676 430 708 371 b 389 0 708 131 565 0 b 69 292 212 0 69 131 l 236 292 b 389 167 236 223 305 167 b 542 292 473 167 542 223 b 379 418 542 346 468 380 b 153 543 303 450 215 486 b 69 722 103 587 69 644 b 389 1014 69 883 212 1014 z "},"T":{"ha":778,"x_min":0,"x_max":0,"o":"m 69 1000 l 306 1000 l 472 1000 l 708 1000 l 708 833 l 472 833 l 472 0 l 306 0 l 306 833 l 69 833 z "},"U":{"ha":778,"x_min":0,"x_max":0,"o":"m 69 1000 l 236 1000 l 236 292 b 389 167 236 223 305 167 b 542 292 473 167 542 223 l 542 1000 l 708 1000 l 708 292 b 389 0 708 131 565 0 b 69 292 213 0 69 131 z "},"V":{"ha":956,"x_min":0,"x_max":0,"o":"m 69 1000 l 244 1000 l 478 272 l 712 1000 l 887 1000 l 566 0 l 390 0 z "},"W":{"ha":1067,"x_min":0,"x_max":0,"o":"m 69 1000 l 238 1000 l 332 403 l 448 833 l 620 833 l 736 403 l 830 1000 l 998 1000 l 841 0 l 671 0 l 534 512 l 396 0 l 227 0 z "},"X":{"ha":783,"x_min":0,"x_max":0,"o":"m 69 1000 l 253 1000 l 392 698 l 531 1000 l 715 1000 l 484 500 l 715 0 l 531 0 l 392 301 l 253 0 l 70 0 l 300 500 z "},"Y":{"ha":781,"x_min":0,"x_max":0,"o":"m 69 1000 l 246 1000 l 391 581 l 535 1000 l 712 1000 l 474 326 l 474 0 l 307 0 l 307 326 z "},"Z":{"ha":694,"x_min":0,"x_max":0,"o":"m 69 1000 l 625 1000 l 625 833 l 264 167 l 625 167 l 625 0 l 69 0 l 69 167 l 431 833 l 69 833 z "},"[":{"ha":417,"x_min":0,"x_max":0,"o":"m 56 1086 l 222 1086 l 361 1086 l 361 947 l 222 947 l 222 58 l 361 58 l 361 -136 l 222 -136 l 56 -136 z "},"\\":{"ha":456,"x_min":0,"x_max":0,"o":"m 225 1000 l 56 1000 l 232 0 l 401 0 z "},"]":{"ha":417,"x_min":0,"x_max":0,"o":"m 361 1088 l 194 1088 l 56 1088 l 56 949 l 194 949 l 194 60 l 56 60 l 56 -135 l 194 -135 l 361 -135 z "},"^":{"ha":764,"x_min":0,"x_max":0,"o":"m 709 625 l 513 625 l 382 840 l 251 625 l 56 625 l 284 1000 l 480 1000 z "},"_":{"ha":750,"x_min":0,"x_max":0,"o":"m 56 167 l 56 0 l 694 0 l 694 167 z "},"`":{"ha":278,"x_min":0,"x_max":0,"o":"m 139 1000 b 56 917 93 1000 56 963 b 71 841 56 888 61 862 b 139 778 88 801 116 778 l 139 833 b 222 917 185 833 222 871 b 139 1000 222 963 185 1000 z "},"a":{"ha":956,"x_min":0,"x_max":0,"o":"m 390 1000 l 566 1000 l 887 0 l 712 0 l 667 139 l 289 139 l 244 0 l 69 0 z m 478 728 l 343 306 l 614 306 z "},"b":{"ha":778,"x_min":0,"x_max":0,"o":"m 69 1000 l 236 1000 l 361 1000 b 681 708 537 1000 681 869 b 597 512 680 646 643 558 b 708 292 659 464 708 365 b 389 0 708 131 565 0 l 236 0 l 69 0 z m 236 833 l 236 583 l 361 583 b 514 708 445 583 514 639 b 361 833 514 777 445 833 z m 236 417 l 236 167 l 389 167 b 542 292 473 167 542 223 b 389 417 542 361 473 417 z "},"c":{"ha":944,"x_min":0,"x_max":0,"o":"m 542 1000 b 875 853 650 1000 799 934 l 761 732 b 542 833 711 788 613 833 b 236 500 373 833 236 684 b 542 167 236 316 373 167 b 761 268 613 167 711 212 l 875 147 b 542 0 799 66 650 0 b 69 500 281 0 69 224 b 542 1000 69 776 281 1000 z "},"d":{"ha":833,"x_min":0,"x_max":0,"o":"m 69 1000 l 236 1000 l 292 1000 b 764 500 552 1000 764 776 b 292 0 764 224 552 0 l 236 0 l 69 0 z m 236 833 l 236 167 l 292 167 b 597 500 460 167 597 316 b 292 833 597 684 460 833 z "},"e":{"ha":639,"x_min":0,"x_max":0,"o":"m 69 1000 l 236 1000 l 569 1000 l 569 833 l 236 833 l 236 583 l 542 583 l 542 417 l 236 417 l 236 167 l 569 167 l 569 0 l 236 0 l 69 0 z "},"f":{"ha":639,"x_min":0,"x_max":0,"o":"m 69 1000 l 236 1000 l 569 1000 l 569 833 l 236 833 l 236 583 l 542 583 l 542 417 l 236 417 l 236 222 l 236 167 l 236 0 l 69 0 z "},"g":{"ha":944,"x_min":0,"x_max":0,"o":"m 542 1000 b 875 853 650 1000 799 934 l 761 732 b 542 833 711 788 613 833 b 236 500 373 833 236 684 b 542 167 236 316 373 167 l 681 167 l 681 417 l 514 417 l 514 583 l 847 583 l 847 417 l 847 0 l 681 0 l 542 0 b 69 500 281 0 69 224 b 542 1000 69 776 281 1000 z "},"h":{"ha":778,"x_min":0,"x_max":0,"o":"m 69 1000 l 236 1000 l 236 583 l 542 583 l 542 1000 l 708 1000 l 708 0 l 542 0 l 542 417 l 236 417 l 236 0 l 69 0 z "},"i":{"ha":306,"x_min":0,"x_max":0,"o":"m 69 1000 l 69 0 l 236 0 l 236 1000 z "},"j":{"ha":458,"x_min":0,"x_max":0,"o":"m 222 1000 l 389 1000 l 389 125 b 69 -167 389 -36 246 -167 l 69 0 b 222 125 154 0 222 56 z "},"k":{"ha":782,"x_min":0,"x_max":0,"o":"m 69 1000 l 236 1000 l 236 668 l 237 667 l 475 1000 l 679 1000 l 339 524 l 713 0 l 508 0 l 237 380 l 236 379 l 236 0 l 69 0 z "},"l":{"ha":611,"x_min":0,"x_max":0,"o":"m 69 1000 l 236 1000 l 236 167 l 542 167 l 542 0 l 236 0 l 69 0 z "},"m":{"ha":947,"x_min":0,"x_max":0,"o":"m 69 1000 l 236 1000 l 474 425 l 711 1000 l 878 1000 l 878 0 l 711 0 l 711 564 l 564 206 l 384 206 l 236 564 l 236 0 l 69 0 z "},"n":{"ha":778,"x_min":0,"x_max":0,"o":"m 69 1000 l 238 1000 l 542 374 l 542 1000 l 708 1000 l 708 0 l 537 0 l 236 622 l 236 0 l 69 0 z "},"o":{"ha":1083,"x_min":0,"x_max":0,"o":"m 542 1000 b 1014 500 802 1000 1014 776 b 542 0 1014 224 802 0 b 69 500 281 0 69 224 b 542 1000 69 776 281 1000 z m 542 833 b 236 500 373 833 236 684 b 542 167 236 316 373 167 b 847 500 710 167 847 316 b 542 833 847 684 710 833 z "},"p":{"ha":694,"x_min":0,"x_max":0,"o":"m 69 1000 l 236 1000 l 306 1000 b 625 708 482 1000 625 869 b 306 417 625 547 482 417 l 236 417 l 236 0 l 69 0 z m 236 833 l 236 583 l 306 583 b 458 708 390 583 458 639 b 306 833 458 777 390 833 z "},"q":{"ha":1083,"x_min":0,"x_max":0,"o":"m 542 1000 b 1014 500 802 1000 1014 776 b 894 168 1014 395 960 246 b 917 167 900 167 910 167 l 1000 167 l 1000 0 l 917 0 b 742 48 864 0 786 21 b 542 0 689 22 600 0 b 69 500 281 0 69 224 b 542 1000 69 776 281 1000 z m 542 833 b 236 500 373 833 236 684 b 542 167 236 316 373 167 b 622 179 564 167 600 172 b 597 292 608 208 597 259 l 597 375 l 764 375 l 764 292 b 766 274 764 287 765 279 b 847 500 811 327 847 428 b 542 833 847 684 710 833 z "},"r":{"ha":769,"x_min":0,"x_max":0,"o":"m 69 1000 l 236 1000 l 306 1000 b 625 708 482 1000 625 869 b 422 437 625 598 534 477 l 701 0 l 503 0 l 237 417 l 236 417 l 236 0 l 69 0 z m 236 833 l 236 583 l 306 583 b 458 708 390 583 458 639 b 306 833 458 777 390 833 z "},"s":{"ha":778,"x_min":0,"x_max":0,"o":"m 389 1014 b 708 722 565 1014 708 883 l 542 722 b 389 847 542 791 473 847 b 236 722 305 847 236 791 b 450 585 236 664 340 633 b 629 476 513 557 579 524 b 708 292 676 430 708 371 b 389 0 708 131 565 0 b 69 292 212 0 69 131 l 236 292 b 389 167 236 223 305 167 b 542 292 473 167 542 223 b 379 418 542 346 468 380 b 153 543 303 450 215 486 b 69 722 103 587 69 644 b 389 1014 69 883 212 1014 z "},"t":{"ha":778,"x_min":0,"x_max":0,"o":"m 69 1000 l 306 1000 l 472 1000 l 708 1000 l 708 833 l 472 833 l 472 0 l 306 0 l 306 833 l 69 833 z "},"u":{"ha":778,"x_min":0,"x_max":0,"o":"m 69 1000 l 236 1000 l 236 292 b 389 167 236 223 305 167 b 542 292 473 167 542 223 l 542 1000 l 708 1000 l 708 292 b 389 0 708 131 565 0 b 69 292 213 0 69 131 z "},"v":{"ha":956,"x_min":0,"x_max":0,"o":"m 69 1000 l 244 1000 l 478 272 l 712 1000 l 887 1000 l 566 0 l 390 0 z "},"w":{"ha":1067,"x_min":0,"x_max":0,"o":"m 69 1000 l 238 1000 l 332 403 l 448 833 l 620 833 l 736 403 l 830 1000 l 998 1000 l 841 0 l 671 0 l 534 512 l 396 0 l 227 0 z "},"x":{"ha":783,"x_min":0,"x_max":0,"o":"m 69 1000 l 253 1000 l 392 698 l 531 1000 l 715 1000 l 484 500 l 715 0 l 531 0 l 392 301 l 253 0 l 70 0 l 300 500 z "},"y":{"ha":781,"x_min":0,"x_max":0,"o":"m 69 1000 l 246 1000 l 391 581 l 535 1000 l 712 1000 l 474 326 l 474 0 l 307 0 l 307 326 z "},"z":{"ha":694,"x_min":0,"x_max":0,"o":"m 69 1000 l 625 1000 l 625 833 l 264 167 l 625 167 l 625 0 l 69 0 l 69 167 l 431 833 l 69 833 z "},"{":{"ha":458,"x_min":0,"x_max":0,"o":"m 361 1114 l 403 1114 l 403 947 l 361 947 b 292 878 323 947 292 916 l 292 655 b 235 503 292 608 266 539 b 292 350 270 462 292 408 l 292 128 b 361 58 292 89 323 58 l 403 58 l 403 -109 l 361 -109 b 125 128 231 -109 125 -3 l 125 350 b 56 419 125 388 94 419 l 56 586 b 125 655 94 586 125 617 l 125 878 b 361 1114 125 1008 231 1114 z "},"|":{"ha":278,"x_min":0,"x_max":0,"o":"m 56 1119 l 56 -103 l 222 -103 l 222 1119 z "},"}":{"ha":458,"x_min":0,"x_max":0,"o":"m 97 1108 l 56 1108 l 56 942 l 97 942 b 167 872 136 942 167 911 l 167 650 b 223 497 167 602 192 534 b 167 344 188 456 167 403 l 167 122 b 97 53 167 84 136 53 l 56 53 l 56 -114 l 97 -114 b 333 122 228 -114 333 -8 l 333 344 b 403 414 333 383 364 414 l 403 581 b 333 650 364 581 333 612 l 333 872 b 97 1108 333 1003 228 1108 z "},"~":{"ha":871,"x_min":0,"x_max":0,"o":"m 56 571 l 203 650 b 396 611 235 589 322 571 b 815 504 552 694 740 646 l 668 425 b 475 464 636 486 549 504 b 56 571 319 381 131 429 z "},"…":{"ha":769,"x_min":0,"x_max":0,"o":"m 222 83 b 139 167 222 129 185 167 b 56 83 93 167 56 129 b 139 0 56 37 93 0 b 222 83 185 0 222 37 z m 469 83 b 386 167 469 129 432 167 b 303 83 340 167 303 129 b 386 0 303 37 340 0 b 469 83 432 0 469 37 z m 714 83 b 631 167 714 129 677 167 b 547 83 585 167 547 129 b 631 0 547 37 585 0 b 714 83 677 0 714 37 z "},"”":{"ha":500,"x_min":0,"x_max":0,"o":"m 361 833 b 278 917 315 833 278 871 b 293 992 278 946 284 971 b 361 1056 310 1032 338 1056 l 361 1000 b 444 917 407 1000 444 963 b 361 833 444 871 407 833 z m 139 833 b 56 917 93 833 56 871 b 71 992 56 946 61 971 b 139 1056 88 1032 116 1056 l 139 1000 b 222 917 185 1000 222 963 b 139 833 222 871 185 833 z "},"’":{"ha":278,"x_min":0,"x_max":0,"o":"m 139 833 b 56 917 93 833 56 871 b 71 992 56 946 61 971 b 139 1056 88 1032 116 1056 l 139 1000 b 222 917 185 1000 222 963 b 139 833 222 871 185 833 z "},"“":{"ha":500,"x_min":0,"x_max":0,"o":"m 139 1000 b 222 917 185 1000 222 963 b 207 841 222 888 216 862 b 139 778 190 801 162 778 l 139 833 b 56 917 93 833 56 871 b 139 1000 56 963 93 1000 z m 361 1000 b 444 917 407 1000 444 963 b 429 841 444 888 439 862 b 361 778 412 801 384 778 l 361 833 b 278 917 315 833 278 871 b 361 1000 278 963 315 1000 z "},"‘":{"ha":278,"x_min":0,"x_max":0,"o":"m 139 1000 b 222 917 185 1000 222 963 b 207 841 222 888 216 862 b 139 778 190 801 162 778 l 139 833 b 56 917 93 833 56 871 b 139 1000 56 963 93 1000 z "}}}
